<svg width="15" height="15" viewBox="0 0 15 15" fill="none" xmlns="http://www.w3.org/2000/svg">
<path d="M7.5 0.5C6.11554 0.5 4.76216 0.910543 3.61101 1.67971C2.45987 2.44888 1.56266 3.54213 1.03285 4.82122C0.503033 6.1003 0.36441 7.50777 0.634506 8.86563C0.904603 10.2235 1.57129 11.4708 2.55026 12.4498C3.52922 13.4287 4.7765 14.0954 6.13437 14.3655C7.49224 14.6356 8.89971 14.497 10.1788 13.9672C11.4579 13.4373 12.5511 12.5401 13.3203 11.389C14.0895 10.2379 14.5 8.88447 14.5 7.5C14.498 5.6441 13.7599 3.86479 12.4475 2.55247C11.1352 1.24015 9.3559 0.502007 7.5 0.5V0.5ZM7.5 13.3333C6.34628 13.3333 5.21846 12.9912 4.25918 12.3502C3.29989 11.7093 2.55222 10.7982 2.11071 9.73232C1.66919 8.66642 1.55368 7.49353 1.77876 6.36197C2.00384 5.23042 2.55941 4.19102 3.37521 3.37521C4.19102 2.5594 5.23042 2.00383 6.36198 1.77875C7.49353 1.55367 8.66642 1.66919 9.73233 2.1107C10.7982 2.55221 11.7093 3.29989 12.3502 4.25917C12.9912 5.21846 13.3333 6.34628 13.3333 7.5C13.3316 9.04658 12.7165 10.5293 11.6229 11.6229C10.5293 12.7165 9.04658 13.3316 7.5 13.3333ZM10.4167 7.5C10.4167 7.65471 10.3552 7.80308 10.2458 7.91248C10.1364 8.02188 9.98805 8.08334 9.83334 8.08334H8.08334V9.83334C8.08334 9.98805 8.02188 10.1364 7.91248 10.2458C7.80309 10.3552 7.65471 10.4167 7.5 10.4167C7.34529 10.4167 7.19692 10.3552 7.08753 10.2458C6.97813 10.1364 6.91667 9.98805 6.91667 9.83334V8.08334H5.16667C5.01196 8.08334 4.86359 8.02188 4.75419 7.91248C4.6448 7.80308 4.58334 7.65471 4.58334 7.5C4.58334 7.34529 4.6448 7.19692 4.75419 7.08752C4.86359 6.97813 5.01196 6.91667 5.16667 6.91667H6.91667V5.16667C6.91667 5.01196 6.97813 4.86358 7.08753 4.75419C7.19692 4.64479 7.34529 4.58333 7.5 4.58333C7.65471 4.58333 7.80309 4.64479 7.91248 4.75419C8.02188 4.86358 8.08334 5.01196 8.08334 5.16667V6.91667H9.83334C9.98805 6.91667 10.1364 6.97813 10.2458 7.08752C10.3552 7.19692 10.4167 7.34529 10.4167 7.5Z" fill="#FBFBFB"/>
</svg>
