<svg width="19" height="18" viewBox="0 0 19 18" fill="none" xmlns="http://www.w3.org/2000/svg">
<ellipse cx="9.49998" cy="9" rx="9.04033" ry="9" fill="#4E6EEA"/>
<path d="M13.0915 5.42448C12.9792 5.31276 12.827 5.25 12.6683 5.25C12.5096 5.25 12.3573 5.31276 12.2451 5.42448L9.49996 8.15737L6.75482 5.42448C6.64257 5.31276 6.49034 5.25 6.33162 5.25C6.17289 5.25 6.02067 5.31276 5.90841 5.42448C5.7962 5.53623 5.73315 5.68778 5.73315 5.84579C5.73315 6.00381 5.7962 6.15536 5.90841 6.26711L8.65355 9L5.90841 11.7329C5.7962 11.8446 5.73315 11.9962 5.73315 12.1542C5.73315 12.3122 5.7962 12.4638 5.90841 12.5755C6.02067 12.6872 6.17289 12.75 6.33162 12.75C6.49034 12.75 6.64257 12.6872 6.75482 12.5755L9.49996 9.84263L12.2451 12.5755C12.3573 12.6872 12.5096 12.75 12.6683 12.75C12.827 12.75 12.9792 12.6872 13.0915 12.5755C13.2037 12.4638 13.2668 12.3122 13.2668 12.1542C13.2668 11.9962 13.2037 11.8446 13.0915 11.7329L10.3464 9L13.0915 6.26711C13.2037 6.15536 13.2668 6.00381 13.2668 5.84579C13.2668 5.68778 13.2037 5.53623 13.0915 5.42448Z" fill="white"/>
</svg>
