<svg width="28" height="28" viewBox="0 0 28 28" fill="none" xmlns="http://www.w3.org/2000/svg">
<g clip-path="url(#clip0_1_463)">
<g clip-path="url(#clip1_1_463)">
<path d="M14 0.428589C6.50472 0.428589 0.428589 6.50472 0.428589 14C0.428589 21.4953 6.50472 27.5714 14 27.5714C21.4953 27.5714 27.5714 21.4953 27.5714 14C27.5633 6.50806 21.492 0.4367 14 0.428589ZM18.5238 16.9258C18.9834 17.3488 19.0131 18.0642 18.5901 18.5238C18.1671 18.9834 17.4516 19.0131 16.992 18.5901C16.969 18.5689 16.947 18.5468 16.9258 18.5238L14 15.5992L11.0754 18.5238C10.6261 18.9577 9.91014 18.9453 9.47623 18.496C9.05297 18.0577 9.05297 17.3629 9.47623 16.9247L12.4009 14L9.47623 11.0754C9.04231 10.6261 9.05477 9.91014 9.50406 9.47623C9.94232 9.05297 10.6371 9.05297 11.0754 9.47623L14 12.4009L16.9258 9.47623C17.3488 9.01665 18.0642 8.98697 18.5238 9.40996C18.9834 9.83295 19.0131 10.5484 18.5901 11.008C18.5689 11.031 18.5468 11.0531 18.5238 11.0743L15.5992 14L18.5238 16.9258Z" fill="url(#paint0_linear_1_463)"/>
</g>
</g>
<defs>
<linearGradient id="paint0_linear_1_463" x1="31.6886" y1="19.364" x2="0.144757" y2="17.1629" gradientUnits="userSpaceOnUse">
<stop stop-color="#E87C76"/>
<stop offset="1" stop-color="#F82519"/>
</linearGradient>
<clipPath id="clip0_1_463">
<rect width="27.1429" height="27.1429" fill="white" transform="translate(0.428589 0.428589)"/>
</clipPath>
<clipPath id="clip1_1_463">
<rect width="27.1429" height="27.1429" fill="white" transform="translate(0.428589 0.428589)"/>
</clipPath>
</defs>
</svg>
