<svg width="28" height="28" viewBox="0 0 28 28" fill="none" xmlns="http://www.w3.org/2000/svg">
<path d="M27.5714 14C27.5714 21.4953 21.4953 27.5714 14 27.5714C6.50472 27.5714 0.428589 21.4953 0.428589 14C0.428589 6.50472 6.50472 0.428589 14 0.428589C21.4953 0.428589 27.5714 6.50472 27.5714 14ZM5.77011 14C5.77011 18.5453 9.45476 22.2299 14 22.2299C18.5453 22.2299 22.2299 18.5453 22.2299 14C22.2299 9.45476 18.5453 5.77011 14 5.77011C9.45476 5.77011 5.77011 9.45476 5.77011 14Z" fill="#C2E964"/>
<path d="M13.9232 2.62454C12.4108 2.51872 10.8934 2.73899 9.47349 3.27046C8.05361 3.80193 6.76446 4.63218 5.69327 5.70505C4.62208 6.77792 3.79383 8.06836 3.26458 9.48906C2.73533 10.9098 2.51743 12.4276 2.62561 13.9398C3.01463 19.544 7.96522 23.7713 14.1411 23.7713H19.3607C20.5301 23.7699 21.6512 23.3047 22.478 22.4779C23.3049 21.651 23.7701 20.5299 23.7715 19.3606V13.4855C23.8044 10.7662 22.8074 8.13519 20.9806 6.12062C19.1539 4.10605 16.6327 2.85711 13.9232 2.62454ZM19.0961 11.1672L13.1037 17.0837C12.773 17.4132 12.3253 17.5981 11.8586 17.5981C11.3918 17.5981 10.9441 17.4132 10.6134 17.0837L7.27538 13.8163C7.1081 13.6525 7.01273 13.429 7.01025 13.1949C7.00777 12.9608 7.09838 12.7353 7.26215 12.5681C7.42592 12.4008 7.64944 12.3054 7.88353 12.3029C8.11762 12.3004 8.3431 12.3911 8.51038 12.5548L11.8564 15.8249L17.8602 9.91457C18.0295 9.7656 18.2495 9.68713 18.4748 9.69528C18.7002 9.70343 18.9139 9.79758 19.072 9.9584C19.2301 10.1192 19.3206 10.3345 19.3249 10.5599C19.3292 10.7854 19.247 11.004 19.0952 11.1707L19.0961 11.1672Z" fill="#C2E964"/>
</svg>
