<svg width="30" height="29" viewBox="0 0 30 29" fill="none" xmlns="http://www.w3.org/2000/svg">
<g clip-path="url(#clip0_1_1080)">
<path d="M22.326 8.6769C21.7914 6.37813 20.4307 4.35593 18.5027 2.99468C16.5747 1.63343 14.2138 1.02803 11.8686 1.29355C9.52351 1.55907 7.35768 2.677 5.78284 4.43485C4.20799 6.1927 3.33393 8.46792 3.32678 10.828C3.32502 12.3661 3.69658 13.8817 4.40956 15.2446C3.11158 15.9401 2.08326 17.0495 1.488 18.3964C0.892732 19.7434 0.764659 21.2506 1.12413 22.6786C1.48359 24.1067 2.30998 25.3737 3.472 26.2782C4.63401 27.1828 6.065 27.6731 7.5376 27.6713H17.7639V18.5446L15.0052 21.3033L13.304 19.6022L17.2658 15.6404C17.717 15.1893 18.3289 14.9359 18.967 14.9359C19.605 14.9359 20.2169 15.1893 20.6681 15.6404L24.6299 19.6022L22.9287 21.3033L20.17 18.5446V27.6713C22.527 27.6604 24.798 26.7849 26.5525 25.211C28.3069 23.6371 29.4229 21.4741 29.6887 19.1321C29.9545 16.7902 29.3517 14.4321 27.9947 12.505C26.6376 10.5779 24.6205 9.2158 22.326 8.6769Z" fill="url(#paint0_linear_1_1080)"/>
</g>
<defs>
<linearGradient id="paint0_linear_1_1080" x1="0.924317" y1="14.4519" x2="29.7501" y2="14.4519" gradientUnits="userSpaceOnUse">
<stop stop-color="#115CE8"/>
<stop offset="1" stop-color="#9D76FE"/>
</linearGradient>
<clipPath id="clip0_1_1080">
<rect width="28.8742" height="28.8742" fill="white" transform="translate(0.920532)"/>
</clipPath>
</defs>
</svg>
