<svg width="16" height="15" viewBox="0 0 16 15" fill="none" xmlns="http://www.w3.org/2000/svg">
<path d="M12.2382 4.40718C12.1238 4.37181 12.02 4.30867 11.936 4.2234C11.8521 4.13812 11.7905 4.03338 11.7569 3.91851C11.4041 2.78492 10.6832 1.80145 9.70832 1.12387C8.73346 0.446288 7.56039 0.113349 6.37493 0.177787C5.18947 0.242226 4.0594 0.700359 3.16374 1.47961C2.26807 2.25887 1.65801 3.3147 1.43019 4.47984C1.19582 5.65763 1.3847 6.88034 1.96352 7.93251C1.28928 8.28064 0.740999 8.8312 0.395681 9.50689C0.0503622 10.1826 -0.0746526 10.9495 0.0381914 11.6998C0.211959 12.5717 0.678734 13.3579 1.361 13.9279C2.04327 14.4979 2.89998 14.8173 3.78886 14.8332H9.85553C13.2375 14.8332 15.7562 12.8152 15.9815 9.92517C16.0824 8.71606 15.7659 7.5089 15.0847 6.50482C14.4036 5.50075 13.3989 4.76041 12.2382 4.40718ZM12.4435 11.9978L11.3862 12.9405C11.205 13.1199 10.9902 13.2616 10.7541 13.3576C10.5179 13.4536 10.2651 13.5019 10.0102 13.4998C9.74582 13.5004 9.48394 13.4487 9.23958 13.3478C8.99522 13.2469 8.77318 13.0987 8.58619 12.9118L7.55686 11.9958C7.49146 11.9376 7.43817 11.8671 7.40003 11.7883C7.36189 11.7095 7.33964 11.6239 7.33457 11.5365C7.32432 11.36 7.38461 11.1866 7.50219 11.0545C7.61977 10.9224 7.785 10.8425 7.96154 10.8322C8.04895 10.8271 8.1365 10.8393 8.2192 10.8681C8.3019 10.8969 8.37813 10.9416 8.44353 10.9998L9.33352 11.7958V6.83318C9.33352 6.65636 9.40376 6.48679 9.52879 6.36177C9.65381 6.23675 9.82338 6.16651 10.0002 6.16651C10.177 6.16651 10.3466 6.23675 10.4716 6.36177C10.5966 6.48679 10.6669 6.65636 10.6669 6.83318V11.7965L11.5569 11.0018C11.6889 10.8843 11.8623 10.824 12.0388 10.8342C12.2154 10.8445 12.3806 10.9244 12.4982 11.0565C12.6158 11.1886 12.6761 11.362 12.6658 11.5385C12.6556 11.715 12.5756 11.8803 12.4435 11.9978Z" fill="#4E6EEA"/>
</svg>
