<svg width="14" height="15" viewBox="0 0 14 15" fill="none" xmlns="http://www.w3.org/2000/svg">
<g clip-path="url(#clip0_1_550)">
<path d="M8.16671 14.5C8.04049 14.5 7.91768 14.4591 7.81671 14.3833L5.48337 12.6333C5.41093 12.579 5.35212 12.5085 5.31162 12.4275C5.27112 12.3465 5.25004 12.2572 5.25004 12.1667V8.88833L1.15737 4.28408C0.86671 3.95618 0.676927 3.55131 0.610836 3.11814C0.544745 2.68496 0.605157 2.24192 0.784811 1.84226C0.964466 1.44259 1.25572 1.10332 1.62356 0.865205C1.99141 0.627092 2.42019 0.500277 2.85837 0.5H11.1417C11.5799 0.500514 12.0085 0.62754 12.3762 0.865812C12.7439 1.10408 13.035 1.44347 13.2144 1.84317C13.3939 2.24288 13.4541 2.68591 13.3879 3.11902C13.3216 3.55213 13.1317 3.95689 12.841 4.28467L8.75004 8.88833V13.9167C8.75004 14.0714 8.68858 14.2197 8.57919 14.3291C8.46979 14.4385 8.32142 14.5 8.16671 14.5ZM6.41671 11.875L7.58337 12.75V8.66667C7.58349 8.52384 7.636 8.38602 7.73096 8.27933L11.9706 3.50942C12.112 3.34963 12.2042 3.15244 12.2363 2.94151C12.2683 2.73059 12.2388 2.51489 12.1513 2.32032C12.0638 2.12576 11.922 1.96058 11.7429 1.84463C11.5638 1.72869 11.3551 1.66689 11.1417 1.66667H2.85837C2.64514 1.66699 2.43652 1.72882 2.25754 1.84474C2.07857 1.96066 1.93683 2.12575 1.84933 2.3202C1.76183 2.51466 1.73228 2.73023 1.76423 2.94106C1.79618 3.15189 1.88827 3.34903 2.02946 3.50883L6.26971 8.27933C6.36445 8.38611 6.41675 8.52392 6.41671 8.66667V11.875Z" fill="#020043"/>
</g>
<defs>
<clipPath id="clip0_1_550">
<rect width="14" height="14" fill="white" transform="translate(0 0.5)"/>
</clipPath>
</defs>
</svg>
