<svg width="18" height="18" viewBox="0 0 18 18" fill="none" xmlns="http://www.w3.org/2000/svg">
<g clip-path="url(#clip0_21_508)">
<path d="M17.3409 6.80171L11.6521 1.11221C10.9481 0.410203 9.99438 0.0159912 9.00013 0.0159912C8.00588 0.0159912 7.0522 0.410203 6.34813 1.11221L0.659381 6.80171C0.4497 7.01005 0.283458 7.25794 0.170293 7.531C0.0571275 7.80407 -0.00071073 8.09688 0.00013113 8.39246V15.7552C0.00013113 16.3519 0.237184 16.9242 0.659141 17.3462C1.0811 17.7682 1.65339 18.0052 2.25013 18.0052H15.7501C16.3469 18.0052 16.9192 17.7682 17.3411 17.3462C17.7631 16.9242 18.0001 16.3519 18.0001 15.7552V8.39246C18.001 8.09688 17.9431 7.80407 17.83 7.531C17.7168 7.25794 17.5506 7.01005 17.3409 6.80171ZM11.2501 16.5052H6.75013V13.5547C6.75013 12.958 6.98718 12.3857 7.40914 11.9637C7.8311 11.5418 8.40339 11.3047 9.00013 11.3047C9.59687 11.3047 10.1692 11.5418 10.5911 11.9637C11.0131 12.3857 11.2501 12.958 11.2501 13.5547V16.5052ZM16.5001 15.7552C16.5001 15.9541 16.4211 16.1449 16.2805 16.2855C16.1398 16.4262 15.949 16.5052 15.7501 16.5052H12.7501V13.5547C12.7501 12.5601 12.355 11.6063 11.6518 10.9031C10.9485 10.1998 9.99469 9.80471 9.00013 9.80471C8.00557 9.80471 7.05174 10.1998 6.34848 10.9031C5.64522 11.6063 5.25013 12.5601 5.25013 13.5547V16.5052H2.25013C2.05122 16.5052 1.86045 16.4262 1.7198 16.2855C1.57915 16.1449 1.50013 15.9541 1.50013 15.7552V8.39246C1.50083 8.1937 1.57977 8.0032 1.71988 7.86221L7.40863 2.17496C7.83141 1.75416 8.40363 1.51792 9.00013 1.51792C9.59663 1.51792 10.1689 1.75416 10.5916 2.17496L16.2804 7.86446C16.4199 8.0049 16.4988 8.19448 16.5001 8.39246V15.7552Z" fill="#020043"/>
</g>
<defs>
<clipPath id="clip0_21_508">
<rect width="18" height="18" fill="white"/>
</clipPath>
</defs>
</svg>
