<svg width="13" height="13" viewBox="0 0 13 13" fill="none" xmlns="http://www.w3.org/2000/svg">
<g clip-path="url(#clip0_1_964)">
<path d="M6.38294 0.5C5.19625 0.5 4.03621 0.851894 3.04952 1.51118C2.06282 2.17047 1.29379 3.10754 0.83966 4.2039C0.385534 5.30026 0.266714 6.50666 0.498226 7.67054C0.729737 8.83443 1.30118 9.90353 2.1403 10.7426C2.97941 11.5818 4.04851 12.1532 5.2124 12.3847C6.37628 12.6162 7.58268 12.4974 8.67904 12.0433C9.77539 11.5892 10.7125 10.8201 11.3718 9.83342C12.031 8.84673 12.3829 7.68669 12.3829 6.5C12.3812 4.90923 11.7485 3.38411 10.6237 2.25926C9.49883 1.13441 7.97371 0.501721 6.38294 0.5V0.5ZM6.38294 11.5C5.39403 11.5 4.42733 11.2068 3.60509 10.6573C2.78284 10.1079 2.14198 9.32705 1.76354 8.41342C1.3851 7.49979 1.28608 6.49445 1.47901 5.52455C1.67194 4.55464 2.14814 3.66373 2.8474 2.96447C3.54667 2.2652 4.43758 1.789 5.40749 1.59607C6.37739 1.40315 7.38272 1.50216 8.29635 1.8806C9.20998 2.25904 9.99088 2.8999 10.5403 3.72215C11.0897 4.54439 11.3829 5.51109 11.3829 6.5C11.3815 7.82564 10.8542 9.09656 9.91686 10.0339C8.9795 10.9713 7.70857 11.4985 6.38294 11.5Z" fill="#020043"/>
<path d="M6.38281 5.50012H5.88281C5.7502 5.50012 5.62303 5.5528 5.52926 5.64657C5.43549 5.74034 5.38281 5.86751 5.38281 6.00012C5.38281 6.13273 5.43549 6.25991 5.52926 6.35368C5.62303 6.44744 5.7502 6.50012 5.88281 6.50012H6.38281V9.50012C6.38281 9.63273 6.43549 9.75991 6.52926 9.85368C6.62303 9.94744 6.7502 10.0001 6.88281 10.0001C7.01542 10.0001 7.14259 9.94744 7.23636 9.85368C7.33013 9.75991 7.38281 9.63273 7.38281 9.50012V6.50012C7.38281 6.23491 7.27745 5.98055 7.08992 5.79302C6.90238 5.60548 6.64803 5.50012 6.38281 5.50012Z" fill="#020043"/>
<path d="M6.38293 4.49982C6.79715 4.49982 7.13293 4.16403 7.13293 3.74982C7.13293 3.3356 6.79715 2.99982 6.38293 2.99982C5.96872 2.99982 5.63293 3.3356 5.63293 3.74982C5.63293 4.16403 5.96872 4.49982 6.38293 4.49982Z" fill="#020043"/>
</g>
<defs>
<clipPath id="clip0_1_964">
<rect width="12" height="12" fill="white" transform="translate(0.382935 0.5)"/>
</clipPath>
</defs>
</svg>
