<svg width="19" height="18" viewBox="0 0 19 18" fill="none" xmlns="http://www.w3.org/2000/svg">
<path d="M7.37446 11.5415L1.1346 5.30101C1.43688 4.79979 1.86321 4.38493 2.37248 4.09644C2.88175 3.80794 3.45677 3.65554 4.04207 3.65394H9.02493C8.67027 4.86552 8.80642 6.16798 9.40398 7.28002C10.0015 8.39206 11.0125 9.22442 12.2186 9.59731L10.2737 11.5429C9.88854 11.9262 9.36719 12.1412 8.82381 12.141C8.28042 12.1407 7.75928 11.9252 7.37446 11.5415ZM11.2397 12.5075C10.5984 13.1469 9.72971 13.506 8.82409 13.506C7.91847 13.506 7.04979 13.1469 6.40849 12.5075L0.657767 6.75679C0.648203 6.86473 0.626343 6.96242 0.626343 7.06967V14.5843C0.627428 15.4898 0.987646 16.358 1.62798 16.9984C2.26832 17.6387 3.1365 17.9989 4.04207 18H13.6061C14.5117 17.9989 15.3799 17.6387 16.0202 16.9984C16.6605 16.358 17.0208 15.4898 17.0218 14.5843V8.36355C16.2096 9.1945 15.1216 9.69986 13.9627 9.78449L11.2397 12.5075Z" fill="#4E6EEA"/>
<path d="M18.707 4.42921C18.707 6.8754 16.724 8.85842 14.2778 8.85842C11.8316 8.85842 9.84858 6.8754 9.84858 4.42921C9.84858 1.98302 11.8316 0 14.2778 0C16.724 0 18.707 1.98302 18.707 4.42921Z" fill="#4E6EEA"/>
<path d="M16.1637 2.4961H13.5259V4.06305C13.6361 3.91607 13.7988 3.79271 14.0141 3.69297C14.2345 3.59323 14.4681 3.54336 14.7149 3.54336C15.1558 3.54336 15.5128 3.63785 15.7858 3.82683C16.064 4.01581 16.2608 4.25466 16.3763 4.54338C16.4971 4.8321 16.5574 5.13656 16.5574 5.45678C16.5574 5.84524 16.4813 6.1917 16.3291 6.49617C16.1821 6.79538 15.959 7.03161 15.6598 7.20484C15.3658 7.37807 15.0036 7.46469 14.5731 7.46469C14.0009 7.46469 13.5416 7.32295 13.1952 7.03948C12.8487 6.75601 12.6413 6.38068 12.5731 5.91348H13.4471C13.5049 6.1602 13.6335 6.35706 13.833 6.50404C14.0324 6.64578 14.2818 6.71664 14.581 6.71664C14.9537 6.71664 15.2319 6.60378 15.4157 6.37806C15.6046 6.15233 15.6991 5.85311 15.6991 5.4804C15.6991 5.10244 15.6046 4.81372 15.4157 4.61424C15.2267 4.40952 14.9485 4.30715 14.581 4.30715C14.3238 4.30715 14.1059 4.37277 13.9275 4.50401C13.7542 4.62999 13.6282 4.80322 13.5495 5.0237H12.6991V1.70868H16.1637V2.4961Z" fill="white"/>
</svg>
