<svg width="19" height="18" viewBox="0 0 19 18" fill="none" xmlns="http://www.w3.org/2000/svg">
<g clip-path="url(#clip0_21_169)">
<path d="M18.6667 7.5V14.25C18.6655 15.2442 18.27 16.1973 17.567 16.9003C16.864 17.6033 15.9109 17.9988 14.9167 18H4.41669C3.42249 17.9988 2.46936 17.6033 1.76635 16.9003C1.06335 16.1973 0.667878 15.2442 0.666687 14.25L0.666687 6C0.667878 5.0058 1.06335 4.05267 1.76635 3.34966C2.46936 2.64666 3.42249 2.25119 4.41669 2.25H10.4167C10.6156 2.25 10.8064 2.32902 10.947 2.46967C11.0877 2.61032 11.1667 2.80109 11.1667 3C11.1667 3.19891 11.0877 3.38968 10.947 3.53033C10.8064 3.67098 10.6156 3.75 10.4167 3.75H4.41669C4.00884 3.75113 3.60903 3.86346 3.26027 4.07491C2.91152 4.28635 2.62704 4.5889 2.43744 4.95L8.07519 10.5885C8.49796 11.0093 9.07019 11.2455 9.66669 11.2455C10.2632 11.2455 10.8354 11.0093 11.2582 10.5885L14.1239 7.725C14.2654 7.58838 14.4548 7.51279 14.6515 7.51449C14.8481 7.5162 15.0362 7.59508 15.1753 7.73414C15.3144 7.87319 15.3932 8.0613 15.3949 8.25795C15.3967 8.4546 15.3211 8.64405 15.1844 8.7855L12.3187 11.652C11.6146 12.354 10.6609 12.7482 9.66669 12.7482C8.67244 12.7482 7.71875 12.354 7.01469 11.652L2.16669 6.80325V14.25C2.16669 14.8467 2.40374 15.419 2.8257 15.841C3.24765 16.2629 3.81995 16.5 4.41669 16.5H14.9167C15.5134 16.5 16.0857 16.2629 16.5077 15.841C16.9296 15.419 17.1667 14.8467 17.1667 14.25V7.5C17.1667 7.30109 17.2457 7.11032 17.3864 6.96967C17.527 6.82902 17.7178 6.75 17.9167 6.75C18.1156 6.75 18.3064 6.82902 18.447 6.96967C18.5877 7.11032 18.6667 7.30109 18.6667 7.5ZM13.4167 3.75H14.9167V5.25C14.9167 5.44891 14.9957 5.63968 15.1364 5.78033C15.277 5.92098 15.4678 6 15.6667 6C15.8656 6 16.0564 5.92098 16.197 5.78033C16.3377 5.63968 16.4167 5.44891 16.4167 5.25V3.75H17.9167C18.1156 3.75 18.3064 3.67098 18.447 3.53033C18.5877 3.38968 18.6667 3.19891 18.6667 3C18.6667 2.80109 18.5877 2.61032 18.447 2.46967C18.3064 2.32902 18.1156 2.25 17.9167 2.25H16.4167V0.75C16.4167 0.551088 16.3377 0.360322 16.197 0.21967C16.0564 0.0790176 15.8656 0 15.6667 0C15.4678 0 15.277 0.0790176 15.1364 0.21967C14.9957 0.360322 14.9167 0.551088 14.9167 0.75V2.25H13.4167C13.2178 2.25 13.027 2.32902 12.8864 2.46967C12.7457 2.61032 12.6667 2.80109 12.6667 3C12.6667 3.19891 12.7457 3.38968 12.8864 3.53033C13.027 3.67098 13.2178 3.75 13.4167 3.75Z" fill="#020043"/>
</g>
<defs>
<clipPath id="clip0_21_169">
<rect width="18" height="18" fill="white" transform="translate(0.666687)"/>
</clipPath>
</defs>
</svg>
