<svg width="28" height="28" viewBox="0 0 28 28" fill="none" xmlns="http://www.w3.org/2000/svg">
<g clip-path="url(#clip0_1_441)">
<path d="M12.4329 15.9349L4.50846 8.00954C4.89234 7.37301 5.43377 6.84615 6.08053 6.47976C6.72729 6.11338 7.45755 5.91983 8.20088 5.9178H14.529C14.0786 7.45648 14.2515 9.11058 15.0104 10.5228C15.7693 11.9351 17.0532 12.9922 18.5849 13.4657L16.1149 15.9366C15.6258 16.4234 14.9637 16.6965 14.2736 16.6962C13.5835 16.6958 12.9216 16.4221 12.4329 15.9349ZM17.3417 17.1616C16.5273 17.9737 15.4241 18.4297 14.2739 18.4297C13.1238 18.4297 12.0206 17.9737 11.2062 17.1616L3.90288 9.85835C3.89074 9.99543 3.86298 10.1195 3.86298 10.2557V19.7991C3.86435 20.9491 4.32182 22.0517 5.13504 22.8649C5.94825 23.6781 7.05082 24.1356 8.20088 24.137H20.347C21.4971 24.1356 22.5996 23.6781 23.4128 22.8649C24.226 22.0517 24.6835 20.9491 24.6849 19.7991V11.8989C23.6534 12.9542 22.2716 13.596 20.7999 13.7035L17.3417 17.1616ZM16.8767 8.52054H19.4794V11.1233C19.4794 11.3534 19.5708 11.5741 19.7335 11.7368C19.8962 11.8995 20.1169 11.9909 20.347 11.9909C20.5771 11.9909 20.7978 11.8995 20.9605 11.7368C21.1232 11.5741 21.2146 11.3534 21.2146 11.1233V8.52054H23.8173C24.0474 8.52054 24.2681 8.42914 24.4308 8.26643C24.5935 8.10373 24.6849 7.88306 24.6849 7.65296C24.6849 7.42287 24.5935 7.20219 24.4308 7.03949C24.2681 6.87679 24.0474 6.78538 23.8173 6.78538H21.2146V4.18264C21.2146 3.95255 21.1232 3.73187 20.9605 3.56917C20.7978 3.40647 20.5771 3.31506 20.347 3.31506C20.1169 3.31506 19.8962 3.40647 19.7335 3.56917C19.5708 3.73187 19.4794 3.95255 19.4794 4.18264V6.78538H16.8767C16.6466 6.78538 16.4259 6.87679 16.2632 7.03949C16.1005 7.20219 16.0091 7.42287 16.0091 7.65296C16.0091 7.88306 16.1005 8.10373 16.2632 8.26643C16.4259 8.42914 16.6466 8.52054 16.8767 8.52054Z" fill="#4E6EEA"/>
</g>
<defs>
<clipPath id="clip0_1_441">
<rect width="27.3973" height="27.3973" fill="white" transform="translate(0.575317 0.0273438)"/>
</clipPath>
</defs>
</svg>
