<svg width="10" height="11" viewBox="0 0 10 11" fill="none" xmlns="http://www.w3.org/2000/svg">
<g clip-path="url(#clip0_1_901)">
<path d="M9.87783 9.78903L7.39074 7.30194C8.0685 6.47302 8.40174 5.41531 8.32151 4.34759C8.24129 3.27987 7.75375 2.28383 6.95974 1.56549C6.16573 0.847155 5.12599 0.46148 4.05559 0.488244C2.9852 0.515007 1.96604 0.95216 1.20891 1.70928C0.451794 2.4664 0.0146408 3.48556 -0.0121225 4.55596C-0.0388857 5.62636 0.346789 6.66609 1.06513 7.4601C1.78346 8.25412 2.77951 8.74166 3.84723 8.82188C4.91495 8.9021 5.97266 8.56887 6.80158 7.89111L9.28866 10.3782C9.36724 10.4541 9.4725 10.4961 9.58174 10.4951C9.69099 10.4942 9.7955 10.4504 9.87275 10.3731C9.95 10.2959 9.99383 10.1914 9.99477 10.0821C9.99572 9.97286 9.95373 9.86761 9.87783 9.78903ZM4.16658 8.00028C3.50731 8.00028 2.86284 7.80478 2.31468 7.43851C1.76651 7.07224 1.33927 6.55164 1.08698 5.94255C0.834685 5.33347 0.768674 4.66324 0.897291 4.01664C1.02591 3.37004 1.34338 2.77609 1.80955 2.30992C2.27573 1.84374 2.86967 1.52628 3.51628 1.39766C4.16288 1.26904 4.8331 1.33505 5.44219 1.58734C6.05127 1.83964 6.57187 2.26688 6.93814 2.81504C7.30441 3.36321 7.49991 4.00767 7.49991 4.66694C7.49892 5.55069 7.14741 6.39796 6.5225 7.02287C5.8976 7.64778 5.05033 7.99928 4.16658 8.00028Z" fill="#020043"/>
</g>
<defs>
<clipPath id="clip0_1_901">
<rect width="10" height="10" fill="white" transform="translate(0 0.5)"/>
</clipPath>
</defs>
</svg>
