<svg width="16" height="16" viewBox="0 0 16 16" fill="none" xmlns="http://www.w3.org/2000/svg">
<g clip-path="url(#clip0_284_1450)">
<path d="M0.78074 6.11408L3.36674 3.52808C3.49247 3.40665 3.66088 3.33945 3.83567 3.34097C4.01047 3.34249 4.17768 3.4126 4.30129 3.5362C4.42489 3.65981 4.495 3.82702 4.49652 4.00182C4.49804 4.17661 4.43085 4.34502 4.30941 4.47075L1.72341 7.05675C1.64658 7.1351 1.57943 7.22239 1.52341 7.31675C1.53341 7.31675 1.54141 7.31142 1.55141 7.31142L12.0074 7.33275C12.1842 7.33275 12.3538 7.40299 12.4788 7.52801C12.6038 7.65304 12.6741 7.82261 12.6741 7.99942C12.6741 8.17623 12.6038 8.3458 12.4788 8.47082C12.3538 8.59585 12.1842 8.66608 12.0074 8.66608L1.55541 8.64475C1.53674 8.64475 1.52141 8.63542 1.50341 8.63408C1.56254 8.74686 1.63752 8.85058 1.72607 8.94208L4.31207 11.5281C4.37575 11.5896 4.42653 11.6631 4.46147 11.7445C4.49641 11.8258 4.5148 11.9133 4.51557 12.0018C4.51634 12.0903 4.49947 12.1781 4.46595 12.2601C4.43243 12.342 4.38293 12.4164 4.32034 12.479C4.25774 12.5416 4.18331 12.5911 4.10138 12.6246C4.01945 12.6582 3.93166 12.675 3.84314 12.6743C3.75462 12.6735 3.66714 12.6551 3.5858 12.6202C3.50447 12.5852 3.4309 12.5344 3.36941 12.4707L0.783406 9.88475C0.283484 9.38468 0.00264263 8.70652 0.00264263 7.99942C0.00264263 7.29231 0.283484 6.61416 0.783406 6.11408H0.78074Z" fill="white"/>
<path d="M11.3333 14.6667H12.6667C13.1971 14.6667 13.7058 14.456 14.0809 14.0809C14.456 13.7058 14.6667 13.1971 14.6667 12.6667V3.33333C14.6667 2.8029 14.456 2.29419 14.0809 1.91912C13.7058 1.54405 13.1971 1.33333 12.6667 1.33333H11.3333C11.1565 1.33333 10.987 1.2631 10.8619 1.13807C10.7369 1.01305 10.6667 0.843478 10.6667 0.666667C10.6667 0.489856 10.7369 0.320286 10.8619 0.195262C10.987 0.0702379 11.1565 0 11.3333 0L12.6667 0C13.5504 0.00105857 14.3976 0.352588 15.0225 0.97748C15.6474 1.60237 15.9989 2.4496 16 3.33333L16 12.6667C15.9989 13.5504 15.6474 14.3976 15.0225 15.0225C14.3976 15.6474 13.5504 15.9989 12.6667 16H11.3333C11.1565 16 10.987 15.9298 10.8619 15.8047C10.7369 15.6797 10.6667 15.5101 10.6667 15.3333C10.6667 15.1565 10.7369 14.987 10.8619 14.8619C10.987 14.7369 11.1565 14.6667 11.3333 14.6667Z" fill="white"/>
</g>
<defs>
<clipPath id="clip0_284_1450">
<rect width="16" height="16" fill="white" transform="matrix(-1 0 0 1 16 0)"/>
</clipPath>
</defs>
</svg>
