<svg width="16" height="16" viewBox="0 0 16 16" fill="none" xmlns="http://www.w3.org/2000/svg">
<g opacity="0.7" clip-path="url(#clip0_1_1163)">
<path d="M11.3334 4.66667C11.3334 4.84348 11.2631 5.01305 11.1381 5.13807C11.0131 5.2631 10.8435 5.33333 10.6667 5.33333H5.33338C5.15657 5.33333 4.987 5.2631 4.86198 5.13807C4.73696 5.01305 4.66672 4.84348 4.66672 4.66667C4.66672 4.48986 4.73696 4.32029 4.86198 4.19526C4.987 4.07024 5.15657 4 5.33338 4H10.6667C10.8435 4 11.0131 4.07024 11.1381 4.19526C11.2631 4.32029 11.3334 4.48986 11.3334 4.66667ZM15.3334 3.33333V12.6667C15.3323 13.5504 14.9808 14.3976 14.3559 15.0225C13.731 15.6474 12.8838 15.9989 12.0001 16H4.00005C3.11632 15.9989 2.26909 15.6474 1.6442 15.0225C1.01931 14.3976 0.667776 13.5504 0.666718 12.6667V3.33333C0.667776 2.4496 1.01931 1.60237 1.6442 0.97748C2.26909 0.352588 3.11632 0.00105857 4.00005 0L12.0001 0C12.8838 0.00105857 13.731 0.352588 14.3559 0.97748C14.9808 1.60237 15.3323 2.4496 15.3334 3.33333ZM4.66672 12C4.66672 11.8681 4.62762 11.7393 4.55436 11.6296C4.48111 11.52 4.37699 11.4345 4.25517 11.3841C4.13336 11.3336 3.99931 11.3204 3.86999 11.3461C3.74067 11.3719 3.62188 11.4354 3.52865 11.5286C3.43541 11.6218 3.37192 11.7406 3.34619 11.8699C3.32047 11.9993 3.33367 12.1333 3.38413 12.2551C3.43459 12.3769 3.52004 12.4811 3.62967 12.5543C3.7393 12.6276 3.8682 12.6667 4.00005 12.6667C4.17686 12.6667 4.34643 12.5964 4.47146 12.4714C4.59648 12.3464 4.66672 12.1768 4.66672 12ZM4.66672 9.33333C4.66672 9.20148 4.62762 9.07259 4.55436 8.96295C4.48111 8.85332 4.37699 8.76787 4.25517 8.71741C4.13336 8.66695 3.99931 8.65375 3.86999 8.67948C3.74067 8.7052 3.62188 8.76869 3.52865 8.86193C3.43541 8.95516 3.37192 9.07395 3.34619 9.20327C3.32047 9.33259 3.33367 9.46664 3.38413 9.58846C3.43459 9.71027 3.52004 9.81439 3.62967 9.88765C3.7393 9.9609 3.8682 10 4.00005 10C4.17686 10 4.34643 9.92976 4.47146 9.80474C4.59648 9.67971 4.66672 9.51014 4.66672 9.33333ZM7.33338 12C7.33338 11.8681 7.29428 11.7393 7.22103 11.6296C7.14778 11.52 7.04366 11.4345 6.92184 11.3841C6.80002 11.3336 6.66598 11.3204 6.53666 11.3461C6.40734 11.3719 6.28855 11.4354 6.19531 11.5286C6.10208 11.6218 6.03858 11.7406 6.01286 11.8699C5.98714 11.9993 6.00034 12.1333 6.0508 12.2551C6.10126 12.3769 6.1867 12.4811 6.29634 12.5543C6.40597 12.6276 6.53486 12.6667 6.66672 12.6667C6.84353 12.6667 7.0131 12.5964 7.13812 12.4714C7.26315 12.3464 7.33338 12.1768 7.33338 12ZM7.33338 9.33333C7.33338 9.20148 7.29428 9.07259 7.22103 8.96295C7.14778 8.85332 7.04366 8.76787 6.92184 8.71741C6.80002 8.66695 6.66598 8.65375 6.53666 8.67948C6.40734 8.7052 6.28855 8.76869 6.19531 8.86193C6.10208 8.95516 6.03858 9.07395 6.01286 9.20327C5.98714 9.33259 6.00034 9.46664 6.0508 9.58846C6.10126 9.71027 6.1867 9.81439 6.29634 9.88765C6.40597 9.9609 6.53486 10 6.66672 10C6.84353 10 7.0131 9.92976 7.13812 9.80474C7.26315 9.67971 7.33338 9.51014 7.33338 9.33333ZM12.6667 12C12.6667 11.8232 12.5965 11.6536 12.4715 11.5286C12.3464 11.4036 12.1769 11.3333 12.0001 11.3333H9.33338C9.15657 11.3333 8.987 11.4036 8.86198 11.5286C8.73696 11.6536 8.66672 11.8232 8.66672 12C8.66672 12.1768 8.73696 12.3464 8.86198 12.4714C8.987 12.5964 9.15657 12.6667 9.33338 12.6667H12.0001C12.1769 12.6667 12.3464 12.5964 12.4715 12.4714C12.5965 12.3464 12.6667 12.1768 12.6667 12ZM9.33338 10C9.46524 10 9.59413 9.9609 9.70376 9.88765C9.8134 9.81439 9.89885 9.71027 9.9493 9.58846C9.99976 9.46664 10.013 9.33259 9.98724 9.20327C9.96152 9.07395 9.89802 8.95516 9.80479 8.86193C9.71155 8.76869 9.59276 8.7052 9.46344 8.67948C9.33412 8.65375 9.20008 8.66695 9.07826 8.71741C8.95644 8.76787 8.85233 8.85332 8.77907 8.96295C8.70582 9.07259 8.66672 9.20148 8.66672 9.33333C8.66672 9.51014 8.73696 9.67971 8.86198 9.80474C8.987 9.92976 9.15657 10 9.33338 10ZM12.6667 9.33333C12.6667 9.20148 12.6276 9.07259 12.5544 8.96295C12.4811 8.85332 12.377 8.76787 12.2552 8.71741C12.1334 8.66695 11.9993 8.65375 11.87 8.67948C11.7407 8.7052 11.6219 8.76869 11.5286 8.86193C11.4354 8.95516 11.3719 9.07395 11.3462 9.20327C11.3205 9.33259 11.3337 9.46664 11.3841 9.58846C11.4346 9.71027 11.52 9.81439 11.6297 9.88765C11.7393 9.9609 11.8682 10 12.0001 10C12.1769 10 12.3464 9.92976 12.4715 9.80474C12.5965 9.67971 12.6667 9.51014 12.6667 9.33333ZM12.6667 4.66667C12.6667 4.13623 12.456 3.62753 12.0809 3.25245C11.7059 2.87738 11.1972 2.66667 10.6667 2.66667H5.33338C4.80295 2.66667 4.29424 2.87738 3.91917 3.25245C3.5441 3.62753 3.33338 4.13623 3.33338 4.66667C3.33338 5.1971 3.5441 5.70581 3.91917 6.08088C4.29424 6.45595 4.80295 6.66667 5.33338 6.66667H10.6667C11.1972 6.66667 11.7059 6.45595 12.0809 6.08088C12.456 5.70581 12.6667 5.1971 12.6667 4.66667Z" fill="#020043"/>
</g>
<defs>
<clipPath id="clip0_1_1163">
<rect width="16" height="16" fill="white"/>
</clipPath>
</defs>
</svg>
