<svg width="13" height="13" viewBox="0 0 13 13" fill="none" xmlns="http://www.w3.org/2000/svg">
<g clip-path="url(#clip0_1_696)">
<path d="M6.5 0.5C5.31331 0.5 4.15328 0.851894 3.16658 1.51118C2.17989 2.17047 1.41085 3.10754 0.956725 4.2039C0.5026 5.30026 0.38378 6.50666 0.615291 7.67054C0.846802 8.83443 1.41825 9.90353 2.25736 10.7426C3.09648 11.5818 4.16557 12.1532 5.32946 12.3847C6.49335 12.6162 7.69975 12.4974 8.7961 12.0433C9.89246 11.5892 10.8295 10.8201 11.4888 9.83342C12.1481 8.84673 12.5 7.68669 12.5 6.5C12.4983 4.90923 11.8656 3.38411 10.7407 2.25926C9.6159 1.13441 8.09077 0.501721 6.5 0.5V0.5ZM6.5 11.5C5.5111 11.5 4.5444 11.2068 3.72215 10.6573C2.89991 10.1079 2.25904 9.32705 1.8806 8.41342C1.50217 7.49979 1.40315 6.49445 1.59608 5.52455C1.789 4.55464 2.26521 3.66373 2.96447 2.96447C3.66373 2.2652 4.55465 1.789 5.52455 1.59607C6.49446 1.40315 7.49979 1.50216 8.41342 1.8806C9.32705 2.25904 10.1079 2.8999 10.6573 3.72215C11.2068 4.54439 11.5 5.51109 11.5 6.5C11.4985 7.82564 10.9713 9.09656 10.0339 10.0339C9.09656 10.9713 7.82564 11.4985 6.5 11.5Z" fill="#020043"/>
<path d="M6.49994 5.50012H5.99994C5.86733 5.50012 5.74015 5.5528 5.64639 5.64657C5.55262 5.74034 5.49994 5.86751 5.49994 6.00012C5.49994 6.13273 5.55262 6.25991 5.64639 6.35368C5.74015 6.44744 5.86733 6.50012 5.99994 6.50012H6.49994V9.50012C6.49994 9.63273 6.55262 9.75991 6.64638 9.85368C6.74015 9.94744 6.86733 10.0001 6.99994 10.0001C7.13254 10.0001 7.25972 9.94744 7.35349 9.85368C7.44726 9.75991 7.49994 9.63273 7.49994 9.50012V6.50012C7.49994 6.23491 7.39458 5.98055 7.20704 5.79302C7.01951 5.60548 6.76515 5.50012 6.49994 5.50012Z" fill="#020043"/>
<path d="M6.5 4.49982C6.91421 4.49982 7.25 4.16403 7.25 3.74982C7.25 3.3356 6.91421 2.99982 6.5 2.99982C6.08579 2.99982 5.75 3.3356 5.75 3.74982C5.75 4.16403 6.08579 4.49982 6.5 4.49982Z" fill="#020043"/>
</g>
<defs>
<clipPath id="clip0_1_696">
<rect width="12" height="12" fill="white" transform="translate(0.5 0.5)"/>
</clipPath>
</defs>
</svg>
